<mxfile host="Electron" agent="Mozilla/5.0 (Windows NT 10.0; Win64; x64) AppleWebKit/537.36 (KHTML, like Gecko) draw.io/27.0.2 Chrome/134.0.6998.205 Electron/35.3.0 Safari/537.36" version="27.0.2">
  <diagram name="第 1 页" id="PualIWM8yKxIZzai6u-Q">
    <mxGraphModel dx="1025" dy="596" grid="1" gridSize="10" guides="1" tooltips="1" connect="1" arrows="1" fold="1" page="1" pageScale="1" pageWidth="827" pageHeight="1169" math="0" shadow="0">
      <root>
        <mxCell id="0" />
        <mxCell id="1" parent="0" />
        <mxCell id="UQ4dwIW6Zv_DhzhQBw4E-1" value="" style="verticalAlign=top;align=left;spacingTop=8;spacingLeft=2;spacingRight=12;shape=cube;size=10;direction=south;fontStyle=4;html=1;whiteSpace=wrap;" vertex="1" parent="1">
          <mxGeometry x="520" y="315" width="330" height="295" as="geometry" />
        </mxCell>
        <mxCell id="UQ4dwIW6Zv_DhzhQBw4E-8" value="" style="line;strokeWidth=1;fillColor=none;align=left;verticalAlign=middle;spacingTop=-1;spacingLeft=3;spacingRight=3;rotatable=0;labelPosition=right;points=[];portConstraint=eastwest;strokeColor=inherit;" vertex="1" parent="1">
          <mxGeometry x="360" y="458.5" width="160" height="8" as="geometry" />
        </mxCell>
        <mxCell id="UQ4dwIW6Zv_DhzhQBw4E-5" value="&lt;div&gt;&lt;br&gt;&lt;/div&gt;" style="verticalAlign=top;align=left;spacingTop=8;spacingLeft=2;spacingRight=12;shape=cube;size=10;direction=south;fontStyle=4;html=1;whiteSpace=wrap;" vertex="1" parent="1">
          <mxGeometry x="90" y="330" width="290" height="250" as="geometry" />
        </mxCell>
        <mxCell id="UQ4dwIW6Zv_DhzhQBw4E-9" value="&lt;span style=&quot;text-align: left;&quot;&gt;&amp;lt;&amp;lt;device&amp;gt;&amp;gt;&lt;/span&gt;" style="text;html=1;align=center;verticalAlign=middle;whiteSpace=wrap;rounded=0;" vertex="1" parent="1">
          <mxGeometry x="100" y="340" width="60" height="30" as="geometry" />
        </mxCell>
        <mxCell id="UQ4dwIW6Zv_DhzhQBw4E-10" value="&lt;u&gt;PC/Mobile phone&lt;/u&gt;" style="text;html=1;align=center;verticalAlign=middle;whiteSpace=wrap;rounded=0;" vertex="1" parent="1">
          <mxGeometry x="80" y="360" width="140" height="30" as="geometry" />
        </mxCell>
        <mxCell id="UQ4dwIW6Zv_DhzhQBw4E-11" value="" style="verticalAlign=top;align=left;spacingTop=8;spacingLeft=2;spacingRight=12;shape=cube;size=10;direction=south;fontStyle=4;html=1;whiteSpace=wrap;" vertex="1" parent="1">
          <mxGeometry x="112.5" y="390" width="245" height="170" as="geometry" />
        </mxCell>
        <mxCell id="UQ4dwIW6Zv_DhzhQBw4E-12" value="&lt;span style=&quot;text-align: left;&quot;&gt;&amp;lt;&amp;lt;execution environment&amp;gt;&amp;gt;&lt;/span&gt;" style="text;html=1;align=center;verticalAlign=middle;whiteSpace=wrap;rounded=0;" vertex="1" parent="1">
          <mxGeometry x="113" y="400" width="164" height="30" as="geometry" />
        </mxCell>
        <mxCell id="UQ4dwIW6Zv_DhzhQBw4E-13" value="&lt;span style=&quot;text-align: left;&quot;&gt;&amp;lt;&amp;lt;&lt;/span&gt;Server&lt;span style=&quot;text-align: left;&quot;&gt;&amp;gt;&amp;gt;&lt;/span&gt;" style="text;html=1;align=center;verticalAlign=middle;whiteSpace=wrap;rounded=0;" vertex="1" parent="1">
          <mxGeometry x="530" y="330" width="60" height="30" as="geometry" />
        </mxCell>
        <mxCell id="UQ4dwIW6Zv_DhzhQBw4E-14" value="" style="verticalAlign=top;align=left;spacingTop=8;spacingLeft=2;spacingRight=12;shape=cube;size=10;direction=south;fontStyle=4;html=1;whiteSpace=wrap;" vertex="1" parent="1">
          <mxGeometry x="548.75" y="380" width="272.5" height="220" as="geometry" />
        </mxCell>
        <mxCell id="UQ4dwIW6Zv_DhzhQBw4E-16" value="&lt;span style=&quot;text-align: left;&quot;&gt;&amp;lt;&amp;lt;&amp;nbsp;&lt;/span&gt;Database&lt;span style=&quot;text-align: left;&quot;&gt;&amp;gt;&amp;gt;&lt;/span&gt;" style="text;html=1;align=center;verticalAlign=middle;whiteSpace=wrap;rounded=0;" vertex="1" parent="1">
          <mxGeometry x="548.75" y="390" width="100" height="30" as="geometry" />
        </mxCell>
        <mxCell id="UQ4dwIW6Zv_DhzhQBw4E-18" value="" style="verticalAlign=top;align=left;spacingTop=8;spacingLeft=2;spacingRight=12;shape=cube;size=10;direction=south;fontStyle=4;html=1;whiteSpace=wrap;" vertex="1" parent="1">
          <mxGeometry x="574.38" y="425" width="221.25" height="150" as="geometry" />
        </mxCell>
        <mxCell id="UQ4dwIW6Zv_DhzhQBw4E-15" value="&lt;span style=&quot;text-align: left;&quot;&gt;&amp;lt;&amp;lt;execution environment&amp;gt;&amp;gt;&lt;/span&gt;" style="text;html=1;align=center;verticalAlign=middle;whiteSpace=wrap;rounded=0;" vertex="1" parent="1">
          <mxGeometry x="567.5" y="430" width="164" height="30" as="geometry" />
        </mxCell>
        <mxCell id="UQ4dwIW6Zv_DhzhQBw4E-17" value="&lt;u&gt;MySQL&lt;/u&gt;" style="text;whiteSpace=wrap;html=1;" vertex="1" parent="1">
          <mxGeometry x="577.38" y="449.5" width="50" height="30" as="geometry" />
        </mxCell>
        <mxCell id="UQ4dwIW6Zv_DhzhQBw4E-19" value="DBSchema" style="html=1;dropTarget=0;whiteSpace=wrap;" vertex="1" parent="1">
          <mxGeometry x="610" y="490" width="140" height="50" as="geometry" />
        </mxCell>
        <mxCell id="UQ4dwIW6Zv_DhzhQBw4E-20" value="" style="shape=module;jettyWidth=8;jettyHeight=4;" vertex="1" parent="UQ4dwIW6Zv_DhzhQBw4E-19">
          <mxGeometry x="1" width="20" height="20" relative="1" as="geometry">
            <mxPoint x="-27" y="7" as="offset" />
          </mxGeometry>
        </mxCell>
        <mxCell id="UQ4dwIW6Zv_DhzhQBw4E-2" value="&lt;span style=&quot;text-align: left;&quot;&gt;&amp;lt;&amp;lt;component&amp;gt;&amp;gt;&lt;/span&gt;" style="shape=module;align=left;spacingLeft=20;align=center;verticalAlign=top;whiteSpace=wrap;html=1;" vertex="1" parent="1">
          <mxGeometry x="160" y="458.5" width="150" height="80" as="geometry" />
        </mxCell>
        <mxCell id="UQ4dwIW6Zv_DhzhQBw4E-23" value="&lt;span style=&quot;text-align: left;&quot;&gt;&lt;u&gt;Web Browser&lt;/u&gt;&lt;/span&gt;" style="text;html=1;align=center;verticalAlign=middle;whiteSpace=wrap;rounded=0;" vertex="1" parent="1">
          <mxGeometry x="113" y="420" width="90" height="30" as="geometry" />
        </mxCell>
        <mxCell id="UQ4dwIW6Zv_DhzhQBw4E-24" value="&lt;span style=&quot;text-align: left;&quot;&gt;&amp;nbsp;User Interface&lt;/span&gt;" style="text;html=1;align=center;verticalAlign=middle;whiteSpace=wrap;rounded=0;" vertex="1" parent="1">
          <mxGeometry x="199" y="485.5" width="90" height="30" as="geometry" />
        </mxCell>
      </root>
    </mxGraphModel>
  </diagram>
</mxfile>
